<svg width="32" height="32" viewBox="0 0 32 32" fill="none" xmlns="http://www.w3.org/2000/svg">
<path fill-rule="evenodd" clip-rule="evenodd" d="M26.4092 26.4101C26.0614 26.7578 25.4962 26.7578 25.1485 26.4101L18.3109 19.5794C16.9395 20.6716 15.2017 21.324 13.3121 21.324C8.87842 21.324 5.2843 17.7338 5.2843 13.3041C5.2843 8.87536 8.87842 5.28418 13.3121 5.28418C17.7457 5.28418 21.3398 8.87536 21.3398 13.3041C21.3398 15.2035 20.6786 16.9472 19.5746 18.3216L26.4102 25.1503C26.7579 25.4981 26.7579 26.0623 26.4092 26.4101ZM13.3121 7.06704C9.86389 7.06704 7.06814 9.85985 7.06814 13.3041C7.06814 16.7493 9.86389 19.5421 13.3121 19.5421C15.0312 19.5421 16.5878 18.8476 17.7163 17.725H17.7173C18.8526 16.5955 19.556 15.0321 19.556 13.3041C19.556 9.85985 16.7602 7.06704 13.3121 7.06704ZM14.2858 17.2244H12.3266V14.27H9.38781V12.3421H12.3266V9.38769H14.2858V12.3421H17.2245V14.27H14.2858V17.2244Z" fill="#02D8F3"/>
</svg>
