<svg xmlns="http://www.w3.org/2000/svg" width="18" height="17" viewBox="0 0 18 17"><g fill="#67008d"><path d="M12.6 0L5.7 0C2.9 0 0.7 2.3 0.7 5.1L0.7 11.9C0.7 14.7 2.9 17 5.7 17L12.6 17C15.3 17 17.6 14.7 17.6 11.9L17.6 5.1C17.6 2.3 15.3 0 12.6 0ZM15.9 11.9C15.9 13.8 14.4 15.3 12.6 15.3L5.7 15.3C3.9 15.3 2.4 13.8 2.4 11.9L2.4 5.1C2.4 3.2 3.9 1.7 5.7 1.7L12.6 1.7C14.4 1.7 15.9 3.2 15.9 5.1L15.9 11.9ZM9.1 4.1C6.7 4.1 4.7 6.1 4.7 8.5 4.7 10.9 6.7 12.9 9.1 12.9 11.5 12.9 13.5 10.9 13.5 8.5 13.5 6.1 11.5 4.1 9.1 4.1ZM9.1 11.2C7.6 11.2 6.4 10 6.4 8.5 6.4 7 7.6 5.8 9.1 5.8 10.6 5.8 11.8 7 11.8 8.5 11.8 10 10.6 11.2 9.1 11.2Z"/><ellipse cx="13.5" cy="4.1" rx="1.1" ry="1.1"/></g></svg>