<svg xmlns="http://www.w3.org/2000/svg" width="18" height="17" viewBox="0 0 18 17"><path fill="#67008d" d="M14.1 0.8L2.2 0.8C1 0.8 0 1.8 0 3L0 15C0 16.2 1 17.2 2.2 17.2L8.1 17.2 8.1 11.3 6.6 11.3C6.4 11.3 6.2 11.2 6.2 11L6.2 9.1C6.2 8.9 6.4 8.7 6.6 8.7L8.1 8.7 8.1 6.9C8.1 4.8 9.4 3.6 11.3 3.6L12.8 3.6C13 3.6 13.2 3.8 13.2 4L13.2 5.6C13.2 5.8 13 6 12.8 6L11.9 6C10.8 6 10.6 6.4 10.6 7.2L10.6 8.7 12.9 8.7C13.1 8.7 13.3 8.9 13.2 9.1L13 11C13 11.2 12.8 11.3 12.7 11.3L10.6 11.3 10.6 17.2 14.1 17.2C15.4 17.2 16.3 16.2 16.3 15L16.3 3C16.3 1.8 15.4 0.8 14.1 0.8Z" transform="translate(1 -.5)"/></svg>