<svg xmlns="http://www.w3.org/2000/svg" width="18" height="17" viewBox="0 0 18 17"><path fill="#67008d" d="M15.5 2.5C15.9 2 16.3 1.5 16.4 0.9 16.5 0.8 16.3 0.6 16.2 0.7 15.6 1.1 15.1 1.3 14.5 1.5 14.4 1.5 14.4 1.5 14.3 1.5 14.2 1.5 14.1 1.4 14 1.4 13.4 0.8 12.6 0.5 11.7 0.5 11.3 0.5 11 0.5 10.6 0.6 9.5 1 8.6 2 8.3 3.1 8.2 3.6 8.2 4 8.2 4.5 8.2 4.5 8.2 4.5 8.2 4.6 8.2 4.6 8.1 4.6 8.1 4.6 5.6 4.4 3.3 3.1 1.7 1.1 1.7 1 1.5 1.1 1.4 1.2 1.1 1.7 1 2.3 1 3 1 4 1.3 4.9 2 5.5 1.7 5.5 1.5 5.4 1.2 5.2 1.1 5.2 0.9 5.2 0.9 5.4 0.9 6.8 1.8 8.1 3 8.7 3 8.7 2.9 8.7 2.9 8.7 2.7 8.7 2.5 8.7 2.3 8.6 2.2 8.6 2.1 8.8 2.1 8.9 2.5 10.2 3.6 11.1 4.9 11.3 3.8 12.1 2.6 12.5 1.3 12.5L0.9 12.5C0.7 12.5 0.6 12.6 0.6 12.7 0.6 12.8 0.6 12.9 0.7 13 2.2 13.9 3.9 14.3 5.6 14.3 7.1 14.3 8.5 14 9.7 13.4 10.9 12.9 11.9 12.1 12.8 11.1 13.6 10.2 14.2 9.1 14.6 7.9 15 6.8 15.2 5.6 15.2 4.4L15.2 4.4C15.2 4.2 15.3 4 15.5 3.9 16 3.5 16.5 2.9 16.9 2.3 17 2.2 16.8 2 16.6 2.1 16.3 2.2 15.9 2.4 15.5 2.5Z" transform="translate(.5 1)"/></svg>