<svg xmlns="http://www.w3.org/2000/svg" width="99" height="65" viewBox="0 0 99 65"><g fill="none" fill-rule="evenodd"><path fill="#231F20" fill-rule="nonzero" d="M99 10.6C98.9 10 98.5 9.4 98.8 9.3 98.7 9 98.7 8.9 98.8 8.7 98.8 8.5 98.9 8.3 98.8 7.8 98.9 7.8 98.6 7.8 98.6 7.9 98.6 7.1 98.3 6.3 97.8 5.5 97.3 4.7 96.7 4 96.2 3.2 96.2 3.3 96.4 3.3 96.6 3.3 96.7 3.4 96.7 3.4 96.8 3.4 96.5 3.1 96.3 2.9 96 2.7 95.9 2.6 95.7 2.5 95.5 2.4L95.4 2.3C95.4 2.3 95.4 2.3 95.3 2.3 95.3 2.3 95.2 2.2 95.2 2.2L95.1 2.2C95.1 2.2 95.1 2.2 95.1 2.2 95.1 2.2 95.1 2.2 95.1 2.2L95 2.1C94.9 2.1 94.9 2 94.8 2 94.6 1.9 94.5 1.8 94.3 1.7 94 1.5 93.7 1.4 93.3 1.3 93.5 1.3 93.6 1.1 93.9 1.2 93.5 0.9 93 0.7 92.5 0.5 92.1 0.4 91.6 0.4 91.4 0.5 92 0.8 91.5 0.3 91.9 0.4 92.2 0.7 92 0.8 91.7 0.8 91.4 0.8 90.9 0.8 90.6 0.7L90.6 0.6C90.2 0.5 89.9 0.5 89.7 0.6 89.4 0.6 89.2 0.6 88.7 0.7 88.2 0.5 89.2 0.5 89 0.3 88.9 0 88.3 0 87.7 0 87.2 0.1 86.7 0.2 86.6 0.2 86.4 0.4 86.1 0.6 86.2 0.7 85.9 0.9 85.8 0.9 85.7 0.8 85.6 0.7 85.5 0.6 85.3 0.7 84.8 1.3 84.4 1.9 84.2 2.5 84.1 2.5 84.1 2.6 84.1 2.6 84 2.6 83.9 2.6 83.8 2.5 83.6 2.5 83.4 2.5 83.6 2.1 83.2 2.5 83 2.9 82.8 3.2 82.8 3.2 82.8 3.2 82.8 3.2 82.9 3.1 83.1 2.8 82.4 3 82.7 3.2 82.3 3.5 81.7 4.1 81.2 4.6 80.5 5.3 80.2 5.9 80 5.9 80.1 5.6 80.3 5.4 80.5 5.1 80.7 4.9 80.7 4.7 80.4 4.8 80.1 5 79.8 5.2 79.6 5.4 79.4 5.6 79.2 5.8 78.9 6.3 78.7 6.8 78.5 7.3 78.4 7.8 78.3 8.4 78.2 9L78.2 9.1C78.2 9.1 78.2 9.1 78.2 9.1 78.2 9.2 78.2 9.2 78.2 9.2 78.2 9.3 78.2 9.4 78.2 9.4 78.2 9.6 78.2 9.7 78.1 9.8 78 9.7 78 9.6 78 9.5 78 9.8 77.9 10 77.8 10.1 77.7 10.2 77.7 10.3 77.9 10.6 77.8 10.8 77.6 10.7 77.5 10.5 77.3 10.4 77.2 10.3 77.2 10.6 77.3 10.7 77.4 10.7 77.4 10.8 77.4 10.8 77.3 10.8 77.3 10.8 77.1 10.8 77 10.9 76.8 10.9 76.7 10.7 76.5 10.4 76.3 10.2 76.4 10.3 76.4 10.5 76.4 10.6 76.3 10.5 76.1 10.3 76 10.2L76 10.2C75.9 10.2 75.8 10.2 75.7 10.2 75.7 10.2 75.6 10.2 75.6 10.2L75.6 10.2 75.6 10.2C75.6 10.2 75.5 10.2 75.5 10.2 75.4 10.2 75.2 10.2 75.1 10.2 74.9 10.2 74.8 10.2 74.8 10.1 74.8 10.1 74.9 10 75 10 75.2 9.9 75.3 9.9 75.5 9.8 75.6 9.8 75.6 9.7 75.6 9.6 75.6 9.6 75.6 9.7 75.6 9.7 75.6 9.7 75.6 9.7 75.5 9.7L75.5 9.7 75.5 9.7 75.5 9.7 75.4 9.7C75.3 9.7 75.1 9.8 74.9 9.8 74.7 9.8 74.5 9.9 74.3 9.9 73.6 10 72.7 10.3 71.8 10.6 71.6 10.7 71.4 10.8 71.2 10.9L71 11 70.8 11.1 70.8 11.1C70.8 11.1 70.7 11.1 70.7 11.2 70.7 11.3 70.7 11.4 70.8 11.8 70.7 11.8 70.7 11.7 70.7 11.7L70.7 11.7C70.7 11.7 70.6 11.7 70.6 11.7 70.5 11.6 70.4 11.5 70.4 11.2 70.3 11.3 70.3 11.4 70.3 11.4 70.2 11.4 70.2 11.4 70.2 11.4L70.2 11.4 70.1 11.3 70.1 11.3 70.1 11.3 70.1 11.3C69.8 11.3 69.4 11.3 69.1 11.3 68.4 11.3 67.6 11.4 67 11.6 66.8 11.6 66.7 11.7 66.6 11.7 66.4 11.7 66.3 11.8 66.2 11.8 66 11.9 65.8 12 65.6 12.1 65.7 12 65.4 12 64.9 12.1 64.5 12.2 63.9 12.5 63.5 12.9 64.2 12.6 64.4 12.6 64.3 12.8 64.2 12.9 64.1 13 64 13.1 63.9 13.2 63.9 13.3 63.8 13.4 63.7 13.5 63.6 13.6 63.6 13.7 63.3 13.8 62.9 14 62.5 14.2 62.3 14.4 62.2 14.5 62 14.7 61.8 14.8 61.6 15 61.4 15.2 60.7 15.8 60.2 16.5 59.8 16.4 59.5 17.2 59.5 17.5 59.6 17.7 59.8 17.9 60 18 60.1 18.2 59.9 18.4 59.7 18.6 59.4 18.9 59.3 19.1 59.2 19.3 59.1 19.4L59 19.5 59 19.5 59 19.5 59 19.5C58.9 19.6 58.9 19.6 58.9 19.6 58.8 19.7 58.8 19.7 58.7 19.7 58.7 19.7 58.6 19.7 58.6 19.7 58.5 19.7 58.4 19.6 58.2 19.5 58.2 19.5 58.3 19.5 58.3 19.5 58.3 19.5 58.3 19.5 58.3 19.5L58.3 19.4C58.4 19.4 58.4 19.3 58.5 19.2 58.5 19.2 58.5 19.2 58.5 19.2 58.5 19.1 58.5 19.1 58.5 19 58.6 18.9 58.6 18.8 58.6 18.8 58.6 18.6 58.6 18.5 58.4 18.6 58.3 18.7 58.2 18.9 58.1 19 58.1 19 58.1 19 58.1 19L58.1 19C58.1 19 58.1 19 58.1 19.1 58.1 19.1 58.1 19.1 58.1 19.2 58.1 19.2 58.2 19.2 58.2 19.3 58.2 19.3 58.3 19.4 58.3 19.4 58.3 19.4 58.3 19.4 58.3 19.4 58.3 19.5 58.3 19.5 58.3 19.5 58.2 19.4 58.1 19.4 58 19.3 57.9 19.3 57.8 19.2 57.7 19.1 57.8 19.2 57.7 19.3 57.6 19.2 57.8 19.3 57.8 19.4 57.9 19.6 58 19.7 58.1 19.9 58.2 19.9 58.1 19.7 58 19.5 57.9 19.3 57.9 19.3 57.9 19.3 58 19.4 58.1 19.5 58.3 19.6 58.3 19.7 58.3 19.9 58.5 20.2 58.6 20.6 58.7 20.9 58.9 21.4 58.9 22 58.8 22 58.8 22 58.7 22 58.7 22.1 58.6 21.9 58.5 21.8 58.5 21.8 58.5 21.8 58.5 21.8 58.5 21.8 58.5 21.8 58.5 21.8 58.6 21.8 58.6 21.8 58.5 21.7 58.5 21.6 58.4 21.4 58.4 21.3 58.3 21.2 58.3 21 58.2 20.9 58.2 20.8 58.1 20.7 58.1 20.6 58.1 20.7 58.1 20.7 58.1 20.7 58.1 20.9 58 20.7 57.8 20.4 57.7 20.1 57.6 19.8 57.5 19.7 57.6 19.8 57.6 20 57.6 20.2 57.7 20.3 57.7 20.5 57.6 20.6 57.5 20.6 57.4 20.6 57.4 20.6 57.4 20.5 57.3 20.5 57.3 20.4 57.3 20.2 57.4 20 57.3 19.8 57.3 19.8 57.3 19.8 57.2 19.8L57.2 19.8 57 19.7C56.8 19.7 56.7 19.6 56.5 19.6 55.9 19.5 55.3 19.3 54.6 19.3 53.4 19.1 52.3 19.1 51.2 19.2 50.6 19.3 50.1 19.4 49.6 19.5 49.1 19.6 48.7 19.7 48.3 19.8 48.1 19.6 48 19.4 47.8 19.2 46.9 17.9 46 17.2 45.4 16.8 45 16.6 44.8 16.5 44.6 16.5 44.5 16.5 44.4 16.6 44.4 16.7 44.3 16.7 44.2 16.7 44.2 16.7 44.2 16.7 44.2 16.7 44.2 16.7 44.2 16.6 44.2 16.6 44.1 16.6 44.1 16.5 44.1 16.5 44 16.5 44 16.4 43.9 16.3 43.9 16.2 43.6 15.9 43.5 15.7 43.3 15.4 43 15.3 42.7 15.1 42.3 15 42.1 14.9 41.9 14.8 41.7 14.8 41.6 14.7 41.5 14.7 41.3 14.7 41.2 14.6 41.1 14.6 41 14.6 40.8 14.5 40.6 14.4 40.4 14.3 40.2 14.3 40 14.2 39.8 14.1 39.3 14 39 13.8 38.6 13.6 39.2 13.7 39.6 13.8 40.1 13.9 40.6 14 41 14.2 41.5 14.4 41.5 14.2 41.3 14 41 13.8 40.8 13.7 40.6 13.6 40.4 13.5 40.2 13.4 40 13.3 39.7 13.2 39.5 13.1 39.2 13 39 12.9 38.7 12.9 38.4 12.8 38.2 12.7 37.7 12.6 37.2 12.5 36.9 12.3 36.7 12.3 36.6 12.3 36.3 12.3 36.1 12.3 35.9 12.3 35.7 12.4 35.4 12.4 35.1 12.4 34.8 12.4 34.6 12.5 34.3 12.5 34 12.5 33.7 12.6 33.4 12.6 33.1 12.7 32.8 12.8 32.5 12.8 32.2 12.9 31.7 13 31.2 13.1 30.8 13.3 31.2 13.6 31.3 13.9 31 14.3 30.1 14.3 29.3 14.4 28.5 14.6 28.2 14.6 28 14.7 27.8 14.7 27.5 14.7 27.1 14.7 26.9 14.7 27.1 14.5 26.5 14.4 26.1 14.3 25.9 14.2 25.8 14.1 25.8 14.1 25.9 14 26.1 13.9 26.6 13.7 27.3 13.8 27.6 14.3 28.4 14 27.9 13.7 26.4 13.4 24.9 13.5 25 13.3 25.7 12.8 26.5 12.7 26.1 13 26.4 13 26.4 13.2 27.1 12.9 27.4 12.8 27.4 12.7 27.5 12.6 27.3 12.5 27.1 12.4 26.6 12.3 25.9 12.2 26 11.9 25.4 12.2 24 12.4 24.4 12.6 24.1 12.5 23.6 12.5 23.2 12.6 22.7 12.8 22.2 13 21.7 13.2 21.2 13.5 20.7 13.8 20.2 13.9 19.7 14.2 19.3 14.3 18.8 14.3 18.8 14.4 19.8 14.3 18.9 14.9 17.5 15.7 17.4 15.3 16.7 15.4 16.6 15.6 16 16 15.5 16.4 15 16.8 14.5 17.1 14.6 16.9 14.2 17.3 14.6 17.3 14.9 17.4 15.2 17.5 15.5 17.6 15 18.2 14.5 19.2 13.2 19.5 12.4 20.3 11.7 20.5 11.9 20.2 12.4 19.9 12.8 19.5 13.5 19 13.6 18.8 12.6 19.6 11.7 20.4 10.8 21.3 10.3 21.5 10.3 21.3 10.5 21 10.7 20.6 11.3 20.2 11.7 19.9 11 20.2 10.3 20.7 9.8 21.3 9.3 21.8 9.1 22.4 9.1 22.7 8.9 22.8 8.7 23 8.6 23.1 8.4 23.2 8.3 23.3 8.2 23.4 8 23.7 7.7 23.8 7.4 24 7.6 23.7 7.5 23.4 7.5 23 7.5 22.8 7.5 22.7 7.5 22.4 7.6 22.2 7.7 22 8 21.7 8.8 21 8.8 21.2 8.7 21.5 8.6 21.8 8.6 22.1 9.3 21.5L9.1 21.1C9.5 20.9 9.8 20.6 10.1 20.3 10.3 20 10.6 19.7 10.9 19.4 11.4 19.2 10.9 19.6 10.7 19.9 12 18.8 13.2 18.3 14 17.1 12.9 17.5 11.7 18.4 10.8 19.2 9.8 20 9 20.7 8.4 20.8 8.2 21.1 7.9 21.4 7.7 21.7L7.4 22.1 7.2 22.3 7.1 22.5 6.6 23.3 5.9 24.2C6.1 24.3 7.4 23.6 6.8 24.6 6.4 24.6 6 24.7 5.4 25.1 4.9 25.4 4.2 26 3.5 26.8 4 26.7 3.7 27.4 3.3 28.1 3.1 28.5 3 28.9 2.9 29.2 2.9 29.4 3 29.5 3.2 29.3 3.3 28.8 3.5 28.5 3.8 28.4 4 28.2 4.2 28.2 4.3 28.1 4 28.5 3.9 28.8 3.9 28.9 3.9 29.1 3.9 29.1 4 29.1 4.2 29.2 4.4 29.1 4.1 29.6 3.6 30.3 3.5 30.6 3.3 30.8 3.2 31 3.2 30.9 3.1 30.9 3.1 30.8 3 30.8 2.9 31 2.8 31.1 2.5 31.4 2.2 32.2 2.2 31.8 2.2 31.2 2.3 30.3 2.3 29.9 2.4 29.5 2.6 29 2.7 28.5 2.9 28 3.2 27.5 3 27.5 2.7 28 2.4 28.5 2.3 28.7 2.2 28.8 2.2 29 2.1 29.1 2 29.2 1.9 29.4 1.8 29.6 1.7 29.8 1.5 29.9 1.9 29.6 1.9 29.8 1.9 30.1 2 30.3 2 30.6 2.2 30.2 1.8 31.5 1.5 32.9 1.4 34.5 1.4 35.3 1.4 36.1 1.4 36.9 1.5 37.1 1.5 37.3 1.5 37.6 1.5 37.8 1.6 38 1.6 38.3 1.7 38.8 1.8 39.3 1.9 39.7 1.6 39.7 1.3 39.2 1.1 38.5 1.1 38.4 1.1 38.2 1 38 1 37.8 0.9 37.6 0.9 37.5 0.9 37.1 0.8 36.8 0.8 36.4 0.7 35.1 0.7 34.1 0 34.5 -0.1 35.4 0.1 35.9 0.2 36.3 0.2 36.5 0.2 36.7 0.3 36.9 0.3 37.2 0.3 37.4 0.3 37.9 0.1 38.5 0.1 39.6 0.5 40.7 0.7 41.3 0.9 41.9 1.3 42.5 1.6 43.1 2 43.6 2.4 44.1 2.6 44.3 2.8 44.5 3 44.7 3.1 44.8 3.2 44.9 3.3 45L3.4 45C3.4 45 3.4 45 3.5 45L3.6 45.2C3.5 45.1 3.5 44.9 3.4 44.9L3.3 44.9 3.3 44.9 3.2 44.8 3.2 44.6C3 44.5 2.9 44.3 2.8 44.1 3.3 44.5 3.9 44.9 4.5 45.5 5 46.1 5.7 46.6 6.3 47L5.9 46.9C6.3 47.1 6.7 47.3 7.1 47.4 7.3 47.5 7.3 47.5 7.3 47.6 7.4 47.6 7.4 47.6 7.5 47.6 7.5 47.6 7.5 47.7 7.5 47.7 7.3 48.3 7.2 48.9 7.2 49.3 7.3 49 7.5 48.7 7.6 48.4 7.8 48.5 7.8 48.7 7.8 49 7.7 49.3 7.6 49.7 7.6 49.9 7.8 49.7 8.1 49.4 8.3 49.2 8.4 48.9 8.4 48.6 8.3 48.3 8.3 48.1 8.3 48 8.3 47.8 8.3 47.8 8.3 47.8 8.3 47.8 8.4 47.8 8.5 47.9 8.7 47.9 8.7 48 8.7 48.1 8.8 48.2 9 48.7 9.1 49.3 9.2 50.6 8.9 50.8 9 50.1 8.8 49.8 8.7 50.3 8.8 50.8 9 51.4 9.1 51.7 9.1 52 9.2 52.3 9.3 52.6 9.4 53 9.4 53.4 9.3 53.2 9.2 52.9 9.1 52.7 9 52.4 8.9 52.2 8.8 52 8.6 51.7 8.4 51.7 8.3 52.3 8.5 52.6 8.8 52.8 9 53.1 9 53.5 9 53.6 8.9 53.7 8.9 53.7 8.8 53.7 8.9 53.9 8.9 54.5 9.1 54.4 9.2 54.3 9.4 54.3 9.5 54.4 9.7 55.2 9.7 55.5 9.8 56.1 9.6 55.9 9.8 56.4 9.9 56.7 10.1 56.9 10.2 57.1 10.3 57.2 10.4 57.3 10.5 57.3 10.6 57.4 10.7 57.6 10.9 57.7 11.1 57.9 11.4 58.3 11.2 58 11 57.6 11 57.4 10.9 57.2 11 57 11.1 57 11.2 56.9 11.3 57 11.5 57.1 11.7 57.2 11.9 57.5 12.2 57.8 12.5 58.3 12.9 58.8 13.3 59.1 13.5 59.3 13.7 59.5 13.9 59.6 14 59.7 14.1 59.8 14.1 59.9 14.2 59.9 14.2 59.9 14.3 60 14.3 60 14.4 60 14.4 60.1L14.5 60.2 14.6 60.3C14.8 60.5 14.9 60.6 15.1 60.8 15.4 61.1 15.7 61.5 16 61.9 16.4 62 16.8 62 17.1 62.1 16.7 62.2 17 62.4 17.6 62.6 18.1 62.9 18.9 63.1 19.3 63.2 19.4 63.5 18.4 63.3 17.4 62.9 16.5 62.5 15.6 62 15.3 62.4 16 62.9 16.2 63.1 16.1 63.2 16 63.3 15.6 63.2 15.3 63.2 16.2 63.7 16.5 63.6 16.6 63.4 16.7 63.2 16.8 63 17.2 63 17.2 63.1 17.4 63.2 17.6 63.3 17.9 63.4 18.2 63.6 18.6 63.7 19.2 64 19.7 64.2 19.1 64.3 19.5 64.4 19.9 64.4 20.2 64.4 20.5 64.4 20.7 64.4 20.9 64.3 21.2 64.3 21.4 64.2 21.6 64.2 21.9 64.2 22.1 64.2 22.4 64.2 22.3 64.4 22 64.7 22.2 65 22.2 64.9 22.7 64.9 23.2 64.9 23.7 64.9 24.3 64.8 24.5 64.8 24.3 64.8 24.4 64.6 24.4 64.5 24.4 64.4 24.2 64.4 23.4 64.6 23.6 64.5 24.1 64.3 24.7 64.2 25 64.1 25.3 64 25.6 63.9 25.9 63.8 26.2 63.6 26.4 63.5 26.7 63.4 26.9 63.2 26.8 63.2 27 63.4 27.8 63 28.6 62.3 28.8 62.1 29 61.9 29.2 61.7 29.3 61.7 29.3 61.6 29.3 61.6 29.4 61.5 29.5 61.4 29.6 61.4 29.2 60.9 29.2 61.2 29.1 61.4L29.1 61.5C29.1 61.5 29.1 61.5 29.1 61.6L29.1 61.6 29.1 61.6C29.1 61.6 29.1 61.6 29.1 61.6 29 61.8 28.8 61.9 28.7 62 28.4 62.2 28.1 62.3 27.9 62.2 28 62 28.3 61.8 28.5 61.6 28.5 61.5 28.6 61.5 28.7 61.4L28.7 61.3 28.8 61.3C28.8 61.3 28.8 61.3 28.8 61.2 28.8 61.2 28.9 61.2 28.9 61.1 29 60.9 29.2 60.7 29.3 60.5 29.5 60.2 29.6 60 29.8 59.7 29.8 59.5 29.9 59.3 29.9 59.2L30 59 30 59C30 59 30 58.9 30 58.9L30 58.9C30.1 59 30.1 59 30.1 59 30.2 59 30.2 59 30.2 59 30.6 59.5 30.6 59.6 30.6 59.8 30.5 59.9 30.4 60 30.5 60.3 30.4 60.3 30.4 60.3 30.3 60.2 30.3 60.2 30.2 60.2 30.2 60.1L30.2 60.1C30.2 60.1 30.2 60.1 30.2 60.1L30.2 60.1 30.1 60.2C30.1 60.3 30.1 60.3 30 60.4 29.9 60.5 29.8 60.6 29.7 60.9 29.9 60.8 30 60.7 30 60.6 30.1 60.5 30.1 60.4 30.2 60.3L30.2 60.3 30.2 60.2C30.2 60.2 30.2 60.2 30.2 60.3 30.3 60.3 30.3 60.3 30.3 60.3 30.4 60.4 30.6 60.5 30.7 60.5 30.8 60.6 30.9 60.6 31 60.6 31.2 60.7 31.3 60.8 31.4 61 31.4 61.1 31.5 61.1 31.5 61.2L31.5 61.3 31.6 61.3 31.6 61.4 31.6 61.4C31.7 61.5 31.8 61.5 31.9 61.6 32.3 61.9 32.8 62.1 33.5 62.3 34.1 62.5 35 62.6 35.9 62.4 35.7 62.2 35.5 62.1 35.3 62 35.1 61.9 34.9 61.9 34.3 61.8 35.3 61.7 36.5 61.7 37.5 61.5 37.8 61.3 37.4 61.3 37.1 61.3 36.7 61.3 36.6 61.3 37.2 61 37.5 61 37.9 60.9 38.2 60.8 38.5 60.8 38.8 60.7 38.7 60.9L38.5 61C38.7 60.9 38.9 60.8 39 60.8 39.1 60.7 39.2 60.7 39.3 60.6 39.3 60.6 39.3 60.6 39.4 60.6 39.4 60.5 39.5 60.5 39.6 60.5 39.8 60.4 39.9 60.3 40.1 60.2 40.2 60.1 40.2 60.1 40.3 60.1 40.3 60.1 40.3 60.1 40.4 60.1 40.4 60 40.5 60 40.5 60 40.6 60 40.7 59.9 40.8 59.9 40.9 59.8 41.1 59.8 41.2 59.8 41.4 59.7 41.5 59.7 41.6 59.6 41.8 59.5 41.9 59.4 42.1 59.3 42.4 59 42.7 58.6 43 57.9 42.9 57.9 42.7 58.1 42.6 58.3 42.4 58.5 42.2 58.8 41.9 59 41.7 59.1 41.7 59 41.7 58.9 41.7 58.7 41.8 58.5 41.9 58.3 42 58 42.2 57.7 42.3 57.4 42.5 57.1 42.6 56.8 42.8 56.6 42.8 56.6 42.8 56.6 42.9 56.6 43 56.5 43.1 56.3 43.1 56.2 43.2 56 43.3 55.8 43.4 55.6 43.5 55.5 43.5 55.4 43.6 55.3 43.6 55.3 43.6 55.2 43.6 55.2L43.7 55.1C43.7 55.1 43.7 55.1 43.7 55.1 43.8 55.1 43.8 55.1 43.8 55.1 43.8 55.1 43.9 55.1 43.9 55.1 43.9 55.1 43.9 55.1 43.9 55.2 43.9 55.2 43.9 55.2 43.9 55.2 43.8 55.4 43.7 55.6 43.6 55.9 43.4 56.2 43.3 56.5 43.1 56.8 43 57.1 42.9 57.3 42.9 57.4L43.2 56.9C43.4 56.8 43.4 56.6 43.5 56.4L43.8 55.9 44.1 55.4 43.8 55.8 44 55.2 44 55.2 44 55.2 44 55.2 44 55.1C44 55.1 44 55.1 43.9 55L43.9 54.5C43.9 54.9 43.7 54.8 43.6 54.7 43.4 54.6 43.3 54.4 43.4 54.2 43.5 53.9 43.6 53.6 43.7 53.4 43.9 53.3 44 53.3 44.2 53.6 43.8 53 44 52.2 43.9 51.4 43.8 51.7 43.7 51.5 43.7 51.3 43.6 51.1 43.5 50.7 43.5 50.5 43.5 50.5 43.5 50.4 43.5 50.4 43.6 50.4 43.7 50.4 43.8 50.3 43.8 50.3 43.8 50.3 43.8 50.2 43.8 50.2 43.8 50.2 43.8 50.2 43.9 50.9 44 51 44.1 51 44.2 51.1 44.3 51.2 44.4 51.6 44.6 52.1 44.6 52.4 44.6 52.6 44.6 52.7 44.6 52.8 44.5 53 44.8 53.1 44.8 53.1 44.8 52.8 44.7 52.5 44.6 52.1 44.5 51.7L44.5 51.7C44.6 51.5 44.8 51.4 45.1 51.5L45.1 51.6C45.1 51.7 45.1 51.8 45.2 51.9 45.2 52.2 45.2 52.5 45 52.4 45.1 52.6 45.1 52.4 45.2 52.2 45.3 52.1 45.4 51.9 45.5 51.8 45.5 51.8 45.5 51.8 45.6 51.8 45.6 51.8 45.6 51.8 45.6 51.9 45.6 51.9 45.7 52 45.7 52.2 45.7 52 45.6 51.6 45.5 51.3 45.5 51 45.4 50.7 45.5 50.8L46 52.3C46.2 52.8 46.2 52.5 46.3 52.3 46.3 52 46.3 51.8 46.6 51.9L46.2 51 46.2 50.9C46.2 50.9 46.2 50.9 46.2 50.9 46.3 50.7 46.5 51 46.7 51.1 46.9 51.3 47.1 51.5 47.1 51.2 46.7 50.8 46.5 51 46.2 50.6 46.1 50.5 46.1 50.5 46 50.3 45.9 49.9 46 49.9 46.2 50.1 46.4 50.2 46.7 50.6 46.9 50.5 47.1 50.8 47.3 51 47.4 51.2 47.5 51.4 47.6 51.5 47.7 51.6 47.9 51.9 48 52.1 48.3 52.6 48.1 53.1 47.5 53.1 47.2 53.2 47 53.4 46.9 53.6 46.8 54.1 46.9 54.2 46.9 54.2 47 54.2 47.1 54.3 47.2 54.3 47.3 54.4L47.5 54.5 47.5 54.5 47.5 54.5 47.6 54.5C47.8 54.6 47.9 54.7 48 54.7L47.7 54.5 47.7 54.5 48 54.7C49.4 55.5 50.8 55.9 51.7 56.3 52.9 56.5 53.4 56.3 53.6 56 53.9 55.8 53.7 55.5 53.6 55.2 54.5 55.2 54.9 55.3 55.5 55.4 55.2 55.5 54.8 55.6 54.5 55.7 55.9 55.6 56.9 55.3 57.9 54.9 58.4 54.7 58.9 54.5 59.4 54.3 60 54.1 60.5 53.8 61.1 53.5 61.7 53 61.8 52.7 61.7 52.6 61.6 52.4 61.3 52.4 61 52.3 61.4 52 61.8 51.7 62.2 51.3 62.1 51.3 62 51.4 61.9 51.4 61.9 51.1 62.1 50.9 62.3 50.6 62.5 50.4 62.7 50.2 62.9 49.9 63.1 49.8 63.2 49.7 63.3 49.6 63.4 49.8 63.1 50.2 63.2 50.3 63.5 50.1 63.7 49.9 63.9 49.6 64.1 49.2 64.3 48.9 64.4 48.5 64.4 48.6 64.4 49 64.4 49.3 64.3 49.6 64.2 49.9 64 50.1 64 50.1 63.9 50 63.9 50 63.7 50.2 63.6 50.5 63.5 50.7 63.4 50.9 63.4 51 63.3 51.1 63.4 51 63.5 50.9 63.5 50.8 63.8 50.3 64.1 50.1 64.3 50.1 64.6 50 64.7 50.2 64.8 50.5 65 49.9 64.8 49.9 64.7 49.9 64.6 50 64.6 50 64.5 49.9 64.5 49.8 64.6 49.6 64.7 49.2 64.8 49.2 64.8 49.2 64.8 49.2L64.9 49.2 64.9 49.2C64.9 49.2 64.9 49.1 64.9 49.2 65 49.3 65.1 49.4 65.2 49.5 65.2 49.6 65.3 49.6 65.3 49.7L65.4 49.8C65.6 50 65.7 50.2 65.8 50.3 66.1 50.5 66.4 50.7 66.7 50.8 66.8 50.8 66.9 50.8 67 50.8 67.1 50.9 67.3 50.9 67.5 51 67.9 51.1 68.3 51.2 68.6 51.2 69.3 51.4 70 51.5 70.6 51.8 71.1 51.6 71.6 51.4 72.1 51.2 72.3 51 72.6 50.9 72.8 50.7 73.1 50.6 73.3 50.4 73.6 50.2 74.1 49.7 74.5 49.3 74.9 48.9 75.3 48.4 75.7 48 76.1 47.4 76 47.3 76.1 47.1 76.2 46.9L75.2 47.1C74.8 47.7 74.4 48.3 74 48.8 73.7 49.1 73.3 49.4 72.8 49.7 72.7 49.8 72.6 49.8 72.5 49.8 72.3 49.9 72.2 49.9 72.1 49.9 71.9 50 71.7 50 71.4 49.9 70.9 50.2 70.8 50.4 70.7 50.6 70.6 50.7 70.6 50.9 70.4 51.1 69.8 51.2 69.2 51.2 68.8 51.1 68.4 51.1 68.1 51 68 50.8 68.7 50.8 69 50.7 69.3 50.6 69.5 50.4 69.6 50.3 69.7 50.2 69.8 50 69.9 49.9 70.2 49.8 70.4 49.7 70.8 49.5 71.5 49.3 71.3 49.2 70.6 49.3 70 49.4 69.3 49.4 68.5 49.4 68 49.3 68.3 49.1 68.1 48.8 67.6 48.5 67.6 48.5 67.7 48.5 67.8 48.4 68.2 48.5 68.6 48.6 69.1 48.6 70 48.6 70.9 48.4 71.8 48 71.8 48 71.8 48 71.8 48 72.5 47.6 73.6 46.7 74.4 45.6 75.2 46 76 46.2 76.9 46.2 77.3 46.2 77.7 46.2 78.2 46.1 78.1 46.1 78.1 46.2 78 46.2 78.2 46.2 78.4 46.1 78.6 46 78.7 46 78.9 45.9 79.1 45.8 78.9 46.1 78.8 46.4 78.7 46.6 78.5 47 78.2 47.3 77.6 47.6 78 47.6 78.4 47.5 78.8 47.5 79 47.4 79.2 47.4 79.5 47.3 79.6 47.3 79.7 47.2 79.8 47.2L79.9 47.2 80 47.1 80.1 47.1 80.1 47.1 80.1 47.1 80.1 47.1 80.1 47.1C80.1 47.1 80 47.1 79.9 47.2L80.1 47.1C80.5 46.9 80.9 46.7 81.3 46.5 81.6 46.3 81.9 46 82.2 45.8 82.4 45.6 82.5 45.5 82.6 45.3 82.9 45.5 83.2 45.8 83.5 45.9 84.1 46.2 84.3 46.1 84.3 46 84.2 45.9 83.9 45.7 83.7 45.5 83.4 45.2 83.1 45 83.1 44.8 83 44.8 83 44.8 83 44.8 83.1 44.7 83.1 44.7 83.1 44.6 83.2 44.6 83.3 44.6 83.5 44.7 83.7 45 84.1 45.2 84.6 45.4 84.9 45.5 85.3 45.6 85.6 45.6 85.2 45.5 84.6 45.3 84 44.9 83.7 44.7 83.5 44.6 83.3 44.4 83.4 44.3 83.5 44.3 83.6 44.2 84.4 44.6 85.3 45 86.3 45.1 87.2 45.3 88.2 45.3 88.9 45.3 89.3 45.4 89.2 45.5 88.9 45.6 88.5 45.7 88 45.8 87.8 45.9 88 46.1 88.3 46.1 88.6 46 88.7 45.9 88.9 45.9 89.1 45.8 89.1 45.8 89.2 45.8 89.3 45.8 89.3 45.8 89.3 45.8 89.4 45.7L89.4 45.7 89.4 45.7 89.4 45.7 89.4 45.7 89.4 45.7 89.5 45.7 89.5 45.7C89.6 45.7 89.8 45.7 89.9 45.8 89.9 45.9 89.8 46 89.6 46 89.6 46.1 89.5 46.1 89.5 46.1L89.4 46.1C89.4 46.1 89.3 46.1 89.3 46.1 89.2 46.2 89.1 46.2 88.9 46.2 88.7 46.2 88.5 46.2 88.2 46.3 88.5 46.3 88.7 46.3 88.9 46.2 89 46.2 89.1 46.2 89.3 46.2L89.4 46.1 89.5 46.1 89.5 46.1 89.5 46.1 89.5 46.1 89.5 46.1 89.5 46.1 89.5 46.1 89.6 46.1 89.6 46.1C90.9 45.8 92.1 45.1 93.1 44.3 93.2 44.4 93 44.6 92.7 44.9 92.4 45.2 91.9 45.5 91.5 45.7 92.3 45.4 92.9 45 93.4 44.4 93.8 43.9 94.2 43.2 94.3 42.3 95.5 41.1 96.4 39.6 96.5 40.2 96.7 39.5 96.3 39.9 96.1 39.8 96.5 38.9 96.5 38.3 96.4 37.8 96.4 37.3 96.3 37 96.4 36.4 96.2 36.7 95.9 36.9 95.7 37.1 96.2 36.3 96 36.2 95.9 36.1 95.8 36 95.8 36 95.7 36 95.8 35.8 95.8 35.7 95.8 35.6 95.8 35.4 95.9 35.3 95.9 35.2 96.3 35.5 96.8 35.5 97.3 35.3 96.9 34.9 97.4 34 97.5 33.3 97.3 33.5 97.2 33.1 97.1 32.8 97 32.5 97 32.3 96.7 32.9 96.6 32.4 96.6 32.1 96.6 31.7 96.7 31.6 96.8 31.5 96.8 31.5 96.8 31 96.6 30.8 96.9 30.2 97.1 30.3 97 30.6 97.1 30.8 97.4 29.8 97.2 29 97 28.2 97.2 28 97.3 27.4 97.3 26.8 97.4 26.2 97.3 25.5 97.4 24.9 97.1 24.6 97.1 24.2 97.1 23.8 97.1 23.4 97.1 23.1 96.7 23.1 96.8 23.1 96.9 23 96.9 22.9 96.6 22.5 96.1 22.3 96 21.8L96.5 21.8C96.8 21.8 96.7 21.5 96.6 21 96.5 20.7 96.4 20.3 96.4 20.2 96.3 20.3 96.3 20.2 96.2 20 96.2 19.9 96.2 19.8 96.1 19.7 96.1 19.7 96.1 19.7 96.1 19.7 96.1 19.6 96.1 19.6 96.2 19.5 96.2 19.4 96.3 19.3 96.4 19.1 96.5 18.9 96.5 18.7 96.6 18.5 96.6 18.2 96.5 18 96.3 18.1 96.4 18 96.4 17.9 96.5 17.7 96.5 17.7 96.5 17.7 96.5 17.7L96.7 18C96.7 17.9 96.8 17.8 97 17.6 97.1 17.4 97.1 17.2 97.2 17 97.4 16.6 97.4 16.3 97.3 16.3 98.1 15.5 98.6 14.2 98.8 13 99 12 99 11.1 98.9 10.6 99 10.8 99.1 10.9 99 10.6"/><path fill="#231F20" fill-rule="nonzero" d="M97 4C97 4 97.1 4.1 97.1 4.1 97.2 4.1 97.1 4 97 4M94.6 1.8C93.5 1.1 95 1.5 94.1 1 94.2 1.1 93.5 1.4 94.6 1.8"/><path fill="#D31773" fill-rule="nonzero" d="M96 10.2C96 9.1 95.8 8 95.5 6.9 94.9 5.2 93.8 3.8 92.4 2.9 91.2 2.2 89.2 1.5 86.4 2.4 84.1 3.2 82.4 5.2 81.8 8 81.1 11.3 82.1 14.9 84.3 16.9 84.5 17 84.7 17.2 84.9 17.3 84.1 18 83.5 18.9 83 19.8 82.4 17.2 81.3 14.7 79.3 13.3L79.2 13.2C78.6 12.8 77.4 12 75.7 12.5 74.3 12.8 73.1 13.8 72 15.2 70.6 14.5 69.3 14.3 68.1 14.7 64.9 15.6 62.6 19.3 61.5 25 61.3 25.9 61.2 26.9 61.1 27.8 59.8 25.9 58.2 24.5 56.3 23.7 55.6 23.4 53.7 22.6 51.1 23.1 47.7 23.9 45.1 26.5 43.7 30.4 43.5 30 43.2 29.7 42.9 29.4 41.6 28 39.8 27.4 38 27.7 38.8 26.9 39.5 26.1 40 25.1 40.5 24.2 40.7 23.2 40.7 22.3 40.7 21.4 40.5 20.7 40.2 19.9 37.9 15.5 30.4 15 24.4 16.5 17.9 18 13 21.9 10 24.8L9.2 25.5C7.9 26.8 6.5 28.2 5.6 29.9 4.7 31.5 2.8 36.5 5.1 39.2 5.9 40.2 7.7 41.3 11.2 40.3 11.7 40.2 12.2 40 12.7 39.8 11.6 44.6 10.4 50.5 13.5 54.9 14.3 56 15.5 57 16.9 57.5 17.8 57.8 18.6 58 19.4 58 20.3 58 21.2 57.8 22 57.4L22 57.4C23.8 56.6 24.7 55.1 25.4 53.8L25.6 53.6C26.2 52.5 26.7 51.4 27.1 50.2 27.7 51.7 28.6 53.3 30 54.2 30.9 54.8 31.8 55.1 32.8 55.1 33.6 55.1 34.4 54.9 35.2 54.6L35.4 54.5 35.7 54.3C38.8 52.4 39.3 47.1 39.3 44.2 39.3 43.6 39.3 43 39.2 42.4 39.3 42.4 39.4 42.4 39.4 42.4 39.5 42.4 39.5 42.4 39.6 42.4 41.1 42.4 42.4 41.9 43.4 40.9 44.2 44 45.9 46.8 48.7 48.4L48.7 48.4C49.9 49 51.4 49.6 53.3 49.6 54.3 49.6 55.5 49.4 56.7 48.9 59.7 47.8 61.8 45.2 62.9 41.9 63.4 42.9 64.1 43.8 65 44.5 65.8 45.1 66.8 45.5 67.9 45.5 68.7 45.5 69.5 45.3 70.3 44.9L70.3 44.9C71.1 44.5 72.4 43.4 73 42.1 73.9 42.7 74.9 43 75.9 43 76.7 43 77.4 42.8 78.2 42.5L78.2 42.5C80 41.8 81.2 39.5 82 37 82.3 37.9 82.8 38.6 83.4 39.2 84.3 40.1 85.4 40.5 86.6 40.5 87 40.5 87.5 40.5 88 40.3L88 40.3C89.7 39.9 92 38.2 93.2 33.2 93.7 31.3 93.9 29.2 93.9 27.1 93.9 23.1 93.1 19.7 91.6 17.8 94.3 16.6 96 13.7 96 10.2"/><path fill="#FEFEFE" fill-rule="nonzero" d="M34 53.6C34 53.6 34.3 53.4 34.3 53.4 36.3 52.2 37.1 48.3 37.1 44.8 37.1 43.1 36.9 41.5 36.6 40.4L36.5 40 36.8 40.2C37.1 40.3 37.4 40.5 37.7 40.7 38.1 41 38.6 41.3 38.9 41.3 41 41.3 42 40.1 42.5 39 43.5 36.6 42.9 33.1 41.1 31.2 40.3 30.4 38.9 29.5 36.8 30.3 35.3 30.9 34.9 32.8 34.8 34.2L34.8 34.6 34.5 34.3C33.8 33.7 32.4 33.2 30.9 33.7 29 34.3 27.7 36.5 27.2 39.9 26.5 44.7 27.6 51.3 30.5 53.4 31.6 54.1 32.7 54.2 34 53.6M87.1 37.9C89 37.4 90.5 35.3 91.3 32 91.8 30.2 92 28.2 92 26.3 92 22.6 91.1 19.1 89.5 17.7 88.8 17 87.9 16.8 86.9 17.1 82.8 18.3 80.9 28.6 82.7 34.4 83.3 36.4 84.6 38.6 87.1 37.9"/><text fill="#FEFEFE" font-family="HelveticaNeue-Bold, Helvetica Neue" font-size="1.1" font-weight="bold" transform="translate(92 37)"><tspan x="0.9" y="1.5">®</tspan></text><path fill="#FEFEFE" fill-rule="nonzero" d="M68.9 43.6C69.6 43.2 71 41.7 71 40.9 71 40.9 71 40.9 71 40.9 71 40.7 70.8 40.5 70.7 40.3L70.5 39.9C69.7 38.2 69.2 36.2 69 35.1 68.5 33.1 68.3 31 68.3 29.1 68.3 24.2 69.5 19.9 70.8 16.7 69.7 16.1 68.7 15.9 67.9 16.1 65.5 16.8 63.5 20.2 62.5 25.2 61.3 32 62.1 40.8 65.4 43.3 66.4 44.1 67.6 44.2 68.9 43.6"/><path fill="#FEFEFE" fill-rule="nonzero" d="M76.9 41.6C78.6 40.8 80.3 36.1 80.8 30.1 80.9 28.8 81 27.6 81 26.2 81 21.4 80.1 16.5 77.6 14.7L77.5 14.6C77 14.2 76.4 13.8 75.5 14.1 73.4 14.7 71.7 17.6 70.7 22 69.3 28.8 70 38.4 73.2 41.2 74.3 42.1 75.5 42.2 76.9 41.6M21.9 55.6C23.2 55 23.9 53.8 24.6 52.6L24.8 52.4C26.3 49.8 27.1 46.6 27.1 42.6 27.1 39.4 26.6 35.8 25.6 31.6L25.6 31.4 25.7 31.4C33.1 29.7 37.6 27.3 39.4 23.9 39.8 23.3 40 22.6 40 21.9 40 21.3 39.9 20.8 39.6 20.3 37.8 16.8 31.1 16.4 25.5 17.7 19.3 19.1 14.5 22.8 11.6 25.6L10.8 26.3C9.5 27.5 8.2 28.8 7.4 30.3 6.3 32.3 5.3 36.1 6.7 37.8 7.5 38.7 9 38.9 11.1 38.3 12.2 38 13.2 37.4 14.2 36.8L15.6 36 15.6 36.3 15 39.1C13.9 43.8 12.5 49.6 15.4 53.6 16.5 55.1 19.3 56.8 21.9 55.6M88.5 16.7C90.8 15.8 92 13.2 92 10.5 92 9.5 91.9 8.6 91.6 7.8 90.8 5.3 88.8 3.1 85.4 4.4 83.7 4.9 82.6 6.5 82.2 8.6 81.6 11.4 82.4 14.3 84 15.9 85.2 17 86.7 17.3 88.5 16.7M53.1 31.8C51.9 31.7 50.9 32.3 50.3 33.3 49.7 34.5 49.7 36.2 50.4 37.5 51 38.5 51.9 39.1 53.1 39 55.4 39 56.5 37.1 56.5 35.5L56.5 35.4C56.5 33.6 55.3 31.8 53.1 31.8M50 48C45.7 45.5 44.5 39.2 45.2 34.3 45.9 29.4 48.4 25.9 51.8 25.2 53.6 24.7 54.9 25.2 55.8 25.6 60.1 27.6 62 33.1 62 37.7 62 37.8 62 37.9 62 37.9 61.9 43 59.7 47 56.3 48.4 53.6 49.6 51.4 48.8 50 48"/><path fill="#D0D2D3" fill-rule="nonzero" d="M67.5 42.7C66.2 41.5 65.4 38.7 65.2 34.9 65.1 33.7 65 32.4 65.1 31 65.2 27.6 65.7 24.5 66.5 22.2 67.4 19.8 68.6 18.4 70 18.2 70 18.2 70 18.2 70 18.2 69.7 18 69.3 18 68.9 18 67.5 18.2 66.3 19.5 65.4 22 64.6 24.3 64.1 27.3 64 30.8 64 32.2 64 33.5 64.1 34.7 64.3 38.5 65.2 41.3 66.4 42.4 66.8 42.9 67.3 43 67.9 43 67.7 42.9 67.6 42.8 67.5 42.7M48.7 45.5C47 43.7 46 40.8 45.9 37.4 45.9 34.6 46.5 32 47.7 30.1 48.8 28.2 50.4 27.1 52 27.1L52 27.1C51.7 27 51.4 27 51.1 27 49.4 27.1 47.9 28.1 46.8 30 45.6 32 44.9 34.6 45 37.3 45.1 40.7 46.1 43.7 47.8 45.4 48.8 46.5 50.1 47 51.5 47 50.5 46.8 49.5 46.3 48.7 45.5M56 33C56.6 33.7 57 34.7 57 35.7 57 37.7 55.8 39.4 54 40 56 39.9 58 38.6 58 36 58 34.8 57.3 33.6 56 33M74.3 39.5C73.1 38.3 72.3 35.5 72.1 31.8 72.1 30.6 72.1 29.4 72.1 28.1 72.3 24.5 72.8 21.4 73.7 19.1 74.5 16.7 75.7 15.4 77 15.1 76.7 15 76.4 15 76.1 15 74.7 15.1 73.5 16.5 72.6 19 71.7 21.3 71.2 24.4 71 28 71 29.3 71 30.5 71 31.7 71.2 35.4 72 38.2 73.2 39.4 73.7 39.9 74.2 40 74.8 40 74.9 40 74.9 40 75 40 74.7 39.9 74.5 39.7 74.3 39.5M85.1 37.4C84.4 36.5 84 34.5 83.9 31.9 83.9 31 83.9 29.9 83.9 28.9 84.1 26 84.5 23.6 85.2 21.8 85.7 20.3 86.3 19.4 87 19.1 86.9 19 86.7 19 86.5 19 85.7 19.1 84.9 20.1 84.3 21.8 83.6 23.7 83.2 26.1 83.1 28.9 83 30 83 31 83 32 83.1 34.6 83.5 36.6 84.2 37.5 84.5 37.9 84.9 38 85.3 38 85.4 38 85.5 37.9 85.6 37.8 85.4 37.8 85.3 37.6 85.1 37.4M86.2 13.1C85.4 12.3 84.9 10.9 84.9 9.5 84.8 8.1 85.1 6.8 85.8 5.7 86.4 4.8 87.2 4.2 88 4 87.8 4 87.5 4 87.3 4 86.4 4.1 85.6 4.7 84.9 5.7 84.3 6.8 84 8.1 84 9.5 84.1 10.9 84.5 12.3 85.4 13.1 85.8 13.6 86.5 14.1 87.6 14 87.6 14 87.6 14 87.7 14 87 13.8 86.5 13.4 86.2 13.1M38.3 32.8C38.7 32.3 39.3 32.1 39.9 32.1 40.3 32.1 40.6 32.3 41 32.5 41 32.4 41 32.3 40.9 32.2 40.5 31.5 39.9 31 39.4 31 38.9 31 38.5 31.2 38.1 31.7 37.8 32 37.2 33.2 37 35 37.4 33.9 37.9 33.1 38.3 32.8M31.3 52.3C30.1 51.3 29.3 48.6 29.1 45.1L29 44.3C28.7 39.4 29.6 35.8 31.2 35 31 35 30.9 35 30.7 35 28.9 35.2 27.8 39.1 28 44.4L28.1 45.2C28.4 48.7 29.2 51.4 30.3 52.5 30.7 52.9 31.2 53 31.7 53 31.8 53 31.9 52.9 32 52.8 31.7 52.7 31.5 52.6 31.3 52.3M17.3 39.4L18 37.7C18.1 37.4 17.9 37.1 17.5 37 17.2 36.9 16.8 37.1 16.7 37.4L16 39.1C15.3 41.3 14.2 44.4 14 47.7 13.9 50 14.3 52 15.1 53.5 15.8 54.8 16.8 55.7 18 56 16.3 54.8 15.2 51.2 15.3 47.7 15.5 44.5 16.5 41.6 17.3 39.4M28 19.1C25 19.6 21.5 20.8 17.9 22.8 12.6 25.8 9.9 29 8.6 31.2 7.6 32.8 7 34.6 7 35.9 7 36.3 7.1 36.7 7.2 37 7.4 37.5 7.7 37.8 8.3 37.9 8.9 38.1 9.8 38 10.7 37.6 9.2 37.9 8.1 37.5 8.1 35.8 8.1 35.3 8.2 33.9 9.5 31.7 10.7 29.7 13.3 26.7 18.3 23.8 21.8 21.9 27.2 19.6 31 19 30.1 19 29.1 19 28 19.1"/></g></svg>